<?xml version="1.0" encoding="UTF-8"?>
<svg version="1.1" xmlns="http://www.w3.org/2000/svg" width="256" height="256">
<path d="M0 0 C5.28 0 10.56 0 16 0 C16 5.61 16 11.22 16 17 C17.32 16.67 18.64 16.34 20 16 C21.83159004 15.90862738 23.66613349 15.86934427 25.5 15.8671875 C27.0778125 15.86525391 27.0778125 15.86525391 28.6875 15.86328125 C29.780625 15.86714844 30.87375 15.87101562 32 15.875 C33.093125 15.87113281 34.18625 15.86726563 35.3125 15.86328125 C36.364375 15.86457031 37.41625 15.86585937 38.5 15.8671875 C39.93859375 15.86887939 39.93859375 15.86887939 41.40625 15.87060547 C44 16 44 16 48 17 C48 11.39 48 5.78 48 0 C53.28 0 58.56 0 64 0 C64 7.92 64 15.84 64 24 C65.65 24.66 67.3 25.32 69 26 C86.54654463 35.36264761 95.60655793 51.25573903 103 69 C115.21 65.7 127.42 62.4 140 59 C142.29946417 62.44919626 142.80769035 65.1381022 143.625 69.1875 C143.88539063 70.45980469 144.14578125 71.73210937 144.4140625 73.04296875 C144.60742188 74.01878906 144.80078125 74.99460937 145 76 C140.44444444 79.03703704 140.44444444 79.03703704 138 80 C137.18015625 79.71769531 137.18015625 79.71769531 136.34375 79.4296875 C132.82641645 78.78484302 129.79041401 79.93841569 126.4375 80.9375 C119.33787129 83 119.33787129 83 116 83 C116 83.99 116 84.98 116 86 C113 85 113 85 112 84 C112 84.99 112 85.98 112 87 C109.36 86.67 106.72 86.34 104 86 C104 97.55 104 109.1 104 121 C107.63 121.33 111.26 121.66 115 122 C117.55040923 122.36478863 120.09692237 122.75886451 122.63671875 123.19140625 C123.28703568 123.30097153 123.9373526 123.4105368 124.6073761 123.52342224 C126.63476693 123.86589445 128.661127 124.2140618 130.6875 124.5625 C132.08261741 124.79921082 133.4777994 125.03554141 134.87304688 125.27148438 C138.24945176 125.84328559 141.6249601 126.42018955 145 127 C146.25985286 130.77955857 145.64024579 133.84423452 145.0625 137.6875 C144.96259766 138.38939453 144.86269531 139.09128906 144.75976562 139.81445312 C144.51270675 141.54386527 144.25717148 143.2720627 144 145 C141.36 145.33 138.72 145.66 136 146 C136.33 145.34 136.66 144.68 137 144 C136.14245117 143.85377197 135.28490234 143.70754395 134.40136719 143.55688477 C131.21056438 143.01204503 128.02000015 142.4658342 124.82958984 141.91870117 C123.45045177 141.68247642 122.07122077 141.4467935 120.69189453 141.21166992 C118.70580918 140.87301874 116.7200874 140.53223748 114.734375 140.19140625 C113.54038086 139.98717041 112.34638672 139.78293457 111.11621094 139.57250977 C108.70770588 139.13001961 106.36246195 138.63663747 104 138 C104.103125 139.299375 104.20625 140.59875 104.3125 141.9375 C104.37380269 148.04149622 102.5762354 153.39965852 100.6027832 159.10913086 C99.16334674 163.04049655 99.16334674 163.04049655 99.75378418 167.02961731 C101.02950142 169.04664447 102.35265203 170.60002545 104.04101562 172.28393555 C104.96207092 173.20960579 104.96207092 173.20960579 105.9017334 174.15397644 C106.56322388 174.8082814 107.22471436 175.46258636 107.90625 176.13671875 C108.92700623 177.15678764 108.92700623 177.15678764 109.96838379 178.19746399 C111.40510521 179.63116874 112.84425191 181.06244666 114.28564453 182.49145508 C116.49700587 184.68453063 118.70023114 186.8855323 120.90234375 189.08789062 C122.29900755 190.47964011 123.69612744 191.87093207 125.09375 193.26171875 C125.75524048 193.92209641 126.41673096 194.58247406 127.0982666 195.26286316 C128.0193219 196.17434868 128.0193219 196.17434868 128.95898438 197.10424805 C129.49922241 197.64067429 130.03946045 198.17710052 130.59606934 198.7297821 C131.9941224 200.108918 131.9941224 200.108918 134 201 C132.46781315 204.63061667 130.2816856 206.9863773 127.5 209.75 C126.30890625 210.94882812 126.30890625 210.94882812 125.09375 212.171875 C123 214 123 214 121 214 C119.71069336 212.68945313 119.71069336 212.68945313 118.15234375 210.78125 C112.96677695 204.68279758 107.24072203 199.1338413 101.5625 193.5 C100.4379167 192.38044368 99.31356595 191.26065371 98.18945312 190.140625 C95.46230656 187.42438466 92.73204093 184.71131708 90 182 C86.76258518 183.07913827 86.38100788 183.53752384 84.4375 186.125 C81.20859805 190.07776158 77.43155274 192.65953852 73.171875 195.421875 C70.76205788 196.98094075 70.76205788 196.98094075 69 200 C68.01 200 67.02 200 66 200 C63.99187074 200.98357352 61.99145391 201.98308736 60 203 C59.34 203 58.68 203 58 203 C58 203.99 58 204.98 58 206 C56 206 54 206 52 206 C50.65812182 206.6492959 49.32520503 207.31731862 48 208 C46.66893378 208.34227417 45.33599921 208.67751743 44 209 C43.67 209.33 43.34 209.66 43 210 C40.32941149 210.14115161 37.67567762 210.04247107 35 210 C35 209.67 35 209.34 35 209 C33.02 209 31.04 209 29 209 C29 209.33 29 209.66 29 210 C22.84765625 210.09765625 22.84765625 210.09765625 21 210 C20.67 209.67 20.34 209.34 20 209 C19.1028125 208.7834375 19.1028125 208.7834375 18.1875 208.5625 C16 208 16 208 14 206.9375 C11.76449815 205.71704408 11.76449815 205.71704408 8 206 C7.34 206 6.68 206 6 206 C6 205.01 6 204.02 6 203 C5.0925 202.835 4.185 202.67 3.25 202.5 C-6.81126117 199.60789659 -18.21176435 190.68235348 -24 182 C-26.77820352 183.27126985 -28.84043852 184.58635485 -31.00854492 186.73388672 C-31.56559616 187.28140594 -32.1226474 187.82892517 -32.69657898 188.39303589 C-33.2852626 188.98263092 -33.87394623 189.57222595 -34.48046875 190.1796875 C-35.09392654 190.78886017 -35.70738434 191.39803284 -36.33943176 192.02566528 C-37.6320721 193.3125729 -38.92211348 194.60209562 -40.2097168 195.89404297 C-42.18219144 197.86968292 -44.16762471 199.8316186 -46.15429688 201.79296875 C-47.40966444 203.04606378 -48.66424883 204.299944 -49.91796875 205.5546875 C-50.51272507 206.14023407 -51.10748138 206.72578064 -51.72026062 207.32907104 C-54.50795079 210.14847068 -56.27521289 212.0919058 -57 216 C-59.27545227 214.86227386 -60.20223858 213.70440699 -61.8125 211.75 C-63.7427528 209.44033632 -65.69773811 207.26551348 -67.875 205.1875 C-70 203 -70 203 -70 201 C-68.7421875 199.76342773 -68.7421875 199.76342773 -66.875 198.24609375 C-60.2090302 192.57796202 -54.16102764 186.26636868 -48 180.0625 C-46.7359115 178.79338627 -45.47159044 177.52450411 -44.20703125 176.25585938 C-41.13533276 173.1732368 -38.06679992 170.08749572 -35 167 C-35.47479163 165.25117474 -35.95016516 163.50250746 -36.42578125 161.75390625 C-36.69044189 160.7801001 -36.95510254 159.80629395 -37.2277832 158.80297852 C-37.86017892 156.50752003 -38.51722736 154.22203855 -39.1875 151.9375 C-40.3540492 147.30022591 -40.13213863 142.75699073 -40 138 C-42.97 138.33 -45.94 138.66 -49 139 C-49 139.99 -49 140.98 -49 142 C-50.66611905 142.042721 -52.33382885 142.04063832 -54 142 C-54.33 141.67 -54.66 141.34 -55 141 C-56.85708727 141.14601565 -56.85708727 141.14601565 -59.03515625 141.55859375 C-60.24848633 141.76645508 -60.24848633 141.76645508 -61.48632812 141.97851562 C-62.33646484 142.12998047 -63.18660156 142.28144531 -64.0625 142.4375 C-64.91650391 142.58509766 -65.77050781 142.73269531 -66.65039062 142.88476562 C-68.76780638 143.25146891 -70.88402072 143.62509676 -73 144 C-72.67 144.66 -72.34 145.32 -72 146 C-74.3125 146.25 -74.3125 146.25 -77 146 C-80.45096215 142.6843697 -80.7196109 138.79152909 -81.1875 134.25 C-81.26935547 133.55261719 -81.35121094 132.85523438 -81.43554688 132.13671875 C-81.63477133 130.42573224 -81.81889929 128.71299963 -82 127 C-76.82301356 126.14040764 -71.64519787 125.28606589 -66.46655273 124.43652344 C-64.7058997 124.14694128 -62.9454795 123.85593972 -61.18530273 123.56347656 C-58.65148209 123.14272352 -56.11686091 122.72712527 -53.58203125 122.3125 C-52.79850784 122.18125732 -52.01498444 122.05001465 -51.2077179 121.91479492 C-50.46732773 121.79467041 -49.72693756 121.6745459 -48.96411133 121.55078125 C-48.31791336 121.44419189 -47.67171539 121.33760254 -47.00593567 121.2277832 C-44.68431011 120.96415196 -42.33654588 121 -40 121 C-40 109.45 -40 97.9 -40 86 C-45.98772507 85.27837139 -45.98772507 85.27837139 -52 85 C-51.67 84.34 -51.34 83.68 -51 83 C-52.093125 82.89816406 -53.18625 82.79632813 -54.3125 82.69140625 C-59.70553631 82.01727671 -64.80193913 80.48257878 -70 78.9375 C-70.96550781 78.65583984 -71.93101563 78.37417969 -72.92578125 78.08398438 C-75.28550816 77.39475721 -77.64345085 76.69999989 -80 76 C-79.85935198 74.58424426 -79.71386511 73.16896882 -79.56640625 71.75390625 C-79.48592041 70.9657251 -79.40543457 70.17754395 -79.32250977 69.36547852 C-78.87818254 66.10651828 -77.9989845 63.13015144 -77 60 C-69.80856057 60.5855625 -63.03651092 62.48624518 -56.11621094 64.43847656 C-54.11036957 65.00412579 -52.10232008 65.56131378 -50.09375 66.1171875 C-40.30061924 68.84969038 -40.30061924 68.84969038 -38 70 C-37.79697266 69.14341797 -37.79697266 69.14341797 -37.58984375 68.26953125 C-32.61152951 49.51887461 -19.92999129 35.02305939 -3.69921875 24.8828125 C-2 24 -2 24 0 24 C0 16.08 0 8.16 0 0 Z M26 34 C26 33.67 26 33.34 26 33 C11.87622812 33.70618859 -0.48334367 40.6928644 -10.1484375 50.80078125 C-15.71139459 57.40825982 -18.2454867 63.73646011 -21 72 C13.98 72 48.96 72 85 72 C79.81175349 56.43526046 71.89748183 45.47145049 57 38 C50.7367468 35.02005201 50.7367468 35.02005201 44 34 C43.505 33.505 43.505 33.505 43 33 C41.33388095 32.957279 39.66617115 32.95936168 38 33 C37.34 33 36.68 33 36 33 C35.505 32.505 35.505 32.505 35 32 C30.96839809 31.73706944 29.44107266 31.70595156 26 34 Z M-24 88 C-24.04617676 94.88290318 -24.08592264 101.7652581 -24.10986328 108.64819336 C-24.11985497 110.98447502 -24.13345288 113.32074439 -24.15087891 115.65698242 C-24.30710208 137.15604756 -24.06138661 155.44624286 -10 173 C-9.50113281 173.62519531 -9.00226563 174.25039062 -8.48828125 174.89453125 C-0.85146486 183.41621805 10.86973015 189.02128536 22 191 C22.66 191 23.32 191 24 191 C24 157.01 24 123.02 24 88 C8.16 88 -7.68 88 -24 88 Z M40 88 C40 121.99 40 155.98 40 191 C51.84088274 188.63182345 63.87540248 184.56280267 72 175 C72 174.34 72 173.68 72 173 C72.86431641 172.70609375 72.86431641 172.70609375 73.74609375 172.40625 C76.90342075 170.43634061 78.31653939 167.68075578 80.0625 164.5 C80.41320557 163.8706958 80.76391113 163.2413916 81.12524414 162.59301758 C87.44674527 150.92609668 88.16200735 139.24058845 88.09765625 126.18359375 C88.0962413 125.08652603 88.09482635 123.98945831 88.09336853 122.85914612 C88.08781012 119.38523531 88.07526546 115.91139104 88.0625 112.4375 C88.05747962 110.06966239 88.05291766 107.70182377 88.04882812 105.33398438 C88.03870896 99.55594387 88.01912556 93.77804565 88 88 C72.16 88 56.32 88 40 88 Z " fill="#000000" transform="translate(96,16)"/>
<path d="M0 0 C14.52 0 29.04 0 44 0 C44 18.15 44 36.3 44 55 C43.67 55 43.34 55 43 55 C43 37.18 43 19.36 43 1 C29.14 1 15.28 1 1 1 C1 33.01 1 65.02 1 98 C1.99 98.33 2.98 98.66 4 99 C2.68 99 1.36 99 0 99 C0 66.33 0 33.66 0 0 Z " fill="#000000" transform="translate(138,106)"/>
<path d="M0 0 C14.52 0 29.04 0 44 0 C44 32.67 44 65.34 44 99 C42.68 98.67 41.36 98.34 40 98 C40.99 98 41.98 98 43 98 C43 65.99 43 33.98 43 1 C29.14 1 15.28 1 1 1 C1 18.82 1 36.64 1 55 C0.67 55 0.34 55 0 55 C0 36.85 0 18.7 0 0 Z " fill="#000000" transform="translate(74,106)"/>
<path d="M0 0 C33.66 0 67.32 0 102 0 C102 0.66 102 1.32 102 2 C68.34 2 34.68 2 0 2 C0 1.34 0 0.68 0 0 Z " fill="#000000" transform="translate(77,84)"/>
<path d="M0 0 C0.99 0.33 1.98 0.66 3 1 C2.34 1 1.68 1 1 1 C1 11.23 1 21.46 1 32 C1.66 32.33 2.32 32.66 3 33 C2.01 33 1.02 33 0 33 C0 22.11 0 11.22 0 0 Z " fill="#000000" transform="translate(202,103)"/>
<path d="M0 0 C0.66 0 1.32 0 2 0 C2 10.89 2 21.78 2 33 C1.01 32.67 0.02 32.34 -1 32 C-0.34 32 0.32 32 1 32 C0.67 21.44 0.34 10.88 0 0 Z " fill="#000000" transform="translate(52,103)"/>
<path d="M0 0 C0.33 0 0.66 0 1 0 C1.33 7.92 1.66 15.84 2 24 C1.34 24 0.68 24 0 24 C0 16.08 0 8.16 0 0 Z " fill="#000000" transform="translate(162,16)"/>
<path d="M0 0 C0.33 0 0.66 0 1 0 C1 7.92 1 15.84 1 24 C0.34 23.67 -0.32 23.34 -1 23 C-0.67 15.41 -0.34 7.82 0 0 Z " fill="#000000" transform="translate(93,16)"/>
<path d="M0 0 C0.33 0 0.66 0 1 0 C1 5.28 1 10.56 1 16 C0.67 16 0.34 16 0 16 C0 10.72 0 5.44 0 0 Z " fill="#000000" transform="translate(141,16)"/>
<path d="M0 0 C0.33 0 0.66 0 1 0 C1 5.28 1 10.56 1 16 C0.67 16 0.34 16 0 16 C0 10.72 0 5.44 0 0 Z " fill="#000000" transform="translate(114,16)"/>
<path d="M0 0 C5.28 0 10.56 0 16 0 C16 0.33 16 0.66 16 1 C10.72 1 5.44 1 0 1 C0 0.67 0 0.34 0 0 Z " fill="#000000" transform="translate(144,13)"/>
<path d="M0 0 C5.28 0 10.56 0 16 0 C16 0.33 16 0.66 16 1 C10.72 1 5.44 1 0 1 C0 0.67 0 0.34 0 0 Z " fill="#000000" transform="translate(96,13)"/>
<path d="M0 0 C0.33 0 0.66 0 1 0 C1 1.98 1 3.96 1 6 C0.67 6 0.34 6 0 6 C0 4.02 0 2.04 0 0 Z " fill="#000000" transform="translate(201,158)"/>
<path d="M0 0 C0.33 0 0.66 0 1 0 C1 1.98 1 3.96 1 6 C0.67 6 0.34 6 0 6 C0 4.02 0 2.04 0 0 Z " fill="#000000" transform="translate(54,158)"/>
<path d="M0 0 C1.98 0 3.96 0 6 0 C6 0.33 6 0.66 6 1 C4.02 1 2.04 1 0 1 C0 0.67 0 0.34 0 0 Z " fill="#000000" transform="translate(202,156)"/>
<path d="M0 0 C1.98 0 3.96 0 6 0 C6 0.33 6 0.66 6 1 C4.02 1 2.04 1 0 1 C0 0.67 0 0.34 0 0 Z " fill="#000000" transform="translate(48,156)"/>
<path d="M0 0 C0.33 0 0.66 0 1 0 C1 1.98 1 3.96 1 6 C0.67 6 0.34 6 0 6 C0 4.02 0 2.04 0 0 Z " fill="#000000" transform="translate(14,153)"/>
<path d="M0 0 C1.98 0 3.96 0 6 0 C6 0.33 6 0.66 6 1 C4.02 1 2.04 1 0 1 C0 0.67 0 0.34 0 0 Z " fill="#000000" transform="translate(134,30)"/>
<path d="M0 0 C1.98 0 3.96 0 6 0 C6 0.33 6 0.66 6 1 C4.02 1 2.04 1 0 1 C0 0.67 0 0.34 0 0 Z " fill="#000000" transform="translate(116,30)"/>
<path d="M0 0 C1.65 0 3.3 0 5 0 C5 0.33 5 0.66 5 1 C3.35 1 1.7 1 0 1 C0 0.67 0 0.34 0 0 Z " fill="#000000" transform="translate(227,160)"/>
<path d="M0 0 C1.65 0 3.3 0 5 0 C5 0.33 5 0.66 5 1 C3.35 1 1.7 1 0 1 C0 0.67 0 0.34 0 0 Z " fill="#000000" transform="translate(24,160)"/>
<path d="M0 0 C1.65 0 3.3 0 5 0 C5 0.33 5 0.66 5 1 C3.35 1 1.7 1 0 1 C0 0.67 0 0.34 0 0 Z " fill="#000000" transform="translate(215,158)"/>
<path d="M0 0 C1.65 0 3.3 0 5 0 C5 0.33 5 0.66 5 1 C3.35 1 1.7 1 0 1 C0 0.67 0 0.34 0 0 Z " fill="#000000" transform="translate(36,158)"/>
<path d="M0 0 C1.65 0 3.3 0 5 0 C5 0.33 5 0.66 5 1 C3.35 1 1.7 1 0 1 C0 0.67 0 0.34 0 0 Z " fill="#000000" transform="translate(209,157)"/>
<path d="M0 0 C0.33 0 0.66 0 1 0 C1 1.65 1 3.3 1 5 C0.67 5 0.34 5 0 5 C0 3.35 0 1.7 0 0 Z " fill="#000000" transform="translate(241,153)"/>
<path d="M0 0 C0.33 0 0.66 0 1 0 C1 1.65 1 3.3 1 5 C0.67 5 0.34 5 0 5 C0 3.35 0 1.7 0 0 Z " fill="#000000" transform="translate(242,147)"/>
<path d="M0 0 C0.33 0 0.66 0 1 0 C1 1.65 1 3.3 1 5 C0.67 5 0.34 5 0 5 C0 3.35 0 1.7 0 0 Z " fill="#000000" transform="translate(13,147)"/>
<path d="M0 0 C1.65 0 3.3 0 5 0 C5 0.33 5 0.66 5 1 C3.35 1 1.7 1 0 1 C0 0.67 0 0.34 0 0 Z " fill="#000000" transform="translate(236,141)"/>
<path d="M0 0 C1.65 0 3.3 0 5 0 C5 0.33 5 0.66 5 1 C3.35 1 1.7 1 0 1 C0 0.67 0 0.34 0 0 Z " fill="#000000" transform="translate(15,141)"/>
<path d="M0 0 C1.65 0 3.3 0 5 0 C5 0.33 5 0.66 5 1 C3.35 1 1.7 1 0 1 C0 0.67 0 0.34 0 0 Z " fill="#000000" transform="translate(231,140)"/>
<path d="M0 0 C1.65 0 3.3 0 5 0 C5 0.33 5 0.66 5 1 C3.35 1 1.7 1 0 1 C0 0.67 0 0.34 0 0 Z " fill="#000000" transform="translate(20,140)"/>
<path d="M0 0 C1.65 0 3.3 0 5 0 C5 0.33 5 0.66 5 1 C3.35 1 1.7 1 0 1 C0 0.67 0 0.34 0 0 Z " fill="#000000" transform="translate(224,139)"/>
<path d="M0 0 C1.65 0 3.3 0 5 0 C5 0.33 5 0.66 5 1 C3.35 1 1.7 1 0 1 C0 0.67 0 0.34 0 0 Z " fill="#000000" transform="translate(27,139)"/>
<path d="M0 0 C1.65 0 3.3 0 5 0 C5 0.33 5 0.66 5 1 C3.35 1 1.7 1 0 1 C0 0.67 0 0.34 0 0 Z " fill="#000000" transform="translate(33,138)"/>
<path d="M0 0 C1.65 0 3.3 0 5 0 C5 0.33 5 0.66 5 1 C3.35 1 1.7 1 0 1 C0 0.67 0 0.34 0 0 Z " fill="#000000" transform="translate(212,137)"/>
<path d="M0 0 C1.65 0 3.3 0 5 0 C5 0.33 5 0.66 5 1 C3.35 1 1.7 1 0 1 C0 0.67 0 0.34 0 0 Z " fill="#000000" transform="translate(39,137)"/>
<path d="M0 0 C1.65 0 3.3 0 5 0 C5 0.33 5 0.66 5 1 C3.35 1 1.7 1 0 1 C0 0.67 0 0.34 0 0 Z " fill="#000000" transform="translate(206,136)"/>
<path d="M0 0 C1.65 0 3.3 0 5 0 C5 0.33 5 0.66 5 1 C3.35 1 1.7 1 0 1 C0 0.67 0 0.34 0 0 Z " fill="#000000" transform="translate(45,136)"/>
<path d="M0 0 C1 4 1 4 1 4 Z " fill="#000000" transform="translate(200,165)"/>
<path d="M0 0 C1 4 1 4 1 4 Z " fill="#000000" transform="translate(55,165)"/>
<path d="M0 0 C1 4 1 4 1 4 Z " fill="#000000" transform="translate(180,162)"/>
<path d="M0 0 C1 4 1 4 1 4 Z " fill="#000000" transform="translate(75,162)"/>
<path d="M0 0 C4 1 4 1 4 1 Z " fill="#000000" transform="translate(221,159)"/>
<path d="M0 0 C4 1 4 1 4 1 Z " fill="#000000" transform="translate(31,159)"/>
<path d="M0 0 C4 1 4 1 4 1 Z " fill="#000000" transform="translate(219,138)"/>
<path d="M0 0 C1 4 1 4 1 4 Z " fill="#000000" transform="translate(16,78)"/>
<path d="M0 0 C4 1 4 1 4 1 Z " fill="#000000" transform="translate(126,29)"/>
<path d="M0 0 C3 1 3 1 3 1 Z " fill="#000000" transform="translate(145,223)"/>
<path d="M0 0 C3 1 3 1 3 1 Z " fill="#000000" transform="translate(108,223)"/>
<path d="M0 0 C3 1 3 1 3 1 Z " fill="#000000" transform="translate(142,203)"/>
<path d="M0 0 C3 1 3 1 3 1 Z " fill="#000000" transform="translate(111,203)"/>
<path d="" fill="#000000" transform="translate(0,0)"/>
<path d="" fill="#000000" transform="translate(0,0)"/>
<path d="" fill="#000000" transform="translate(0,0)"/>
<path d="" fill="#000000" transform="translate(0,0)"/>
<path d="M0 0 C3 1 3 1 3 1 Z " fill="#000000" transform="translate(48,102)"/>
<path d="M0 0 C3 1 3 1 3 1 Z " fill="#000000" transform="translate(213,100)"/>
<path d="M0 0 C3 1 3 1 3 1 Z " fill="#000000" transform="translate(37,99)"/>
<path d="M0 0 C3 1 3 1 3 1 Z " fill="#000000" transform="translate(220,98)"/>
<path d="M0 0 C3 1 3 1 3 1 Z " fill="#000000" transform="translate(33,98)"/>
<path d="M0 0 C3 1 3 1 3 1 Z " fill="#000000" transform="translate(224,97)"/>
<path d="M0 0 C3 1 3 1 3 1 Z " fill="#000000" transform="translate(29,97)"/>
<path d="M0 0 C3 1 3 1 3 1 Z " fill="#000000" transform="translate(228,96)"/>
<path d="M0 0 C3 1 3 1 3 1 Z " fill="#000000" transform="translate(26,96)"/>
<path d="M0 0 C3 1 3 1 3 1 Z " fill="#000000" transform="translate(22,95)"/>
<path d="" fill="#000000" transform="translate(0,0)"/>
<path d="" fill="#000000" transform="translate(0,0)"/>
<path d="" fill="#000000" transform="translate(0,0)"/>
<path d="" fill="#000000" transform="translate(0,0)"/>
<path d="" fill="#000000" transform="translate(0,0)"/>
<path d="M0 0 C3 1 3 1 3 1 Z " fill="#000000" transform="translate(54,83)"/>
<path d="M0 0 C3 1 3 1 3 1 Z " fill="#000000" transform="translate(202,82)"/>
<path d="M0 0 C3 1 3 1 3 1 Z " fill="#000000" transform="translate(50,82)"/>
<path d="M0 0 C3 1 3 1 3 1 Z " fill="#000000" transform="translate(206,81)"/>
<path d="" fill="#000000" transform="translate(0,0)"/>
<path d="M0 0 C3 1 3 1 3 1 Z " fill="#000000" transform="translate(46,81)"/>
<path d="M0 0 C3 1 3 1 3 1 Z " fill="#000000" transform="translate(209,80)"/>
<path d="M0 0 C3 1 3 1 3 1 Z " fill="#000000" transform="translate(43,80)"/>
<path d="" fill="#000000" transform="translate(0,0)"/>
<path d="M0 0 C3 1 3 1 3 1 Z " fill="#000000" transform="translate(213,79)"/>
<path d="M0 0 C3 1 3 1 3 1 Z " fill="#000000" transform="translate(39,79)"/>
<path d="M0 0 C3 1 3 1 3 1 Z " fill="#000000" transform="translate(217,78)"/>
<path d="M0 0 C3 1 3 1 3 1 Z " fill="#000000" transform="translate(221,77)"/>
<path d="M0 0 C3 1 3 1 3 1 Z " fill="#000000" transform="translate(32,77)"/>
<path d="M0 0 C3 1 3 1 3 1 Z " fill="#000000" transform="translate(224,76)"/>
<path d="M0 0 C3 1 3 1 3 1 Z " fill="#000000" transform="translate(28,76)"/>
<path d="M0 0 C3 1 3 1 3 1 Z " fill="#000000" transform="translate(228,75)"/>
<path d="M0 0 C3 1 3 1 3 1 Z " fill="#000000" transform="translate(25,75)"/>
<path d="M0 0 C3 1 3 1 3 1 Z " fill="#000000" transform="translate(232,74)"/>
<path d="M0 0 C3 1 3 1 3 1 Z " fill="#000000" transform="translate(21,74)"/>
<path d="M0 0 C3 1 3 1 3 1 Z " fill="#000000" transform="translate(114,51)"/>
<path d="M0 0 C2 1 2 1 2 1 Z " fill="#000000" transform="translate(217,231)"/>
<path d="M0 0 C2 1 2 1 2 1 Z " fill="#000000" transform="translate(155,220)"/>
<path d="M0 0 C2 1 2 1 2 1 Z " fill="#000000" transform="translate(99,220)"/>
<path d="M0 0 C2 1 2 1 2 1 Z " fill="#000000" transform="translate(157,219)"/>
<path d="M0 0 C2 1 2 1 2 1 Z " fill="#000000" transform="translate(97,219)"/>
<path d="" fill="#000000" transform="translate(0,0)"/>
<path d="M0 0 C2 1 2 1 2 1 Z " fill="#000000" transform="translate(159,218)"/>
<path d="M0 0 C2 1 2 1 2 1 Z " fill="#000000" transform="translate(95,218)"/>
<path d="" fill="#000000" transform="translate(0,0)"/>
<path d="M0 0 C2 1 2 1 2 1 Z " fill="#000000" transform="translate(161,217)"/>
<path d="M0 0 C2 1 2 1 2 1 Z " fill="#000000" transform="translate(93,217)"/>
<path d="M0 0 C2 1 2 1 2 1 Z " fill="#000000" transform="translate(146,202)"/>
<path d="M0 0 C2 1 2 1 2 1 Z " fill="#000000" transform="translate(108,202)"/>
<path d="M0 0 C2 1 2 1 2 1 Z " fill="#000000" transform="translate(106,201)"/>
<path d="M0 0 C2 1 2 1 2 1 Z " fill="#000000" transform="translate(184,199)"/>
<path d="M0 0 C2 1 2 1 2 1 Z " fill="#000000" transform="translate(70,199)"/>
<path d="" fill="#000000" transform="translate(0,0)"/>
<path d="" fill="#000000" transform="translate(0,0)"/>
<path d="" fill="#000000" transform="translate(0,0)"/>
<path d="" fill="#000000" transform="translate(0,0)"/>
<path d="" fill="#000000" transform="translate(0,0)"/>
<path d="" fill="#000000" transform="translate(0,0)"/>
<path d="" fill="#000000" transform="translate(0,0)"/>
<path d="" fill="#000000" transform="translate(0,0)"/>
<path d="" fill="#000000" transform="translate(0,0)"/>
<path d="" fill="#000000" transform="translate(0,0)"/>
<path d="" fill="#000000" transform="translate(0,0)"/>
<path d="M0 0 C2 1 2 1 2 1 Z " fill="#000000" transform="translate(41,100)"/>
<path d="M0 0 C2 1 2 1 2 1 Z " fill="#000000" transform="translate(217,99)"/>
<path d="M0 0 C2 1 2 1 2 1 Z " fill="#000000" transform="translate(19,94)"/>
<path d="M0 0 C2 1 2 1 2 1 Z " fill="#000000" transform="translate(239,93)"/>
<path d="M0 0 C2 1 2 1 2 1 Z " fill="#000000" transform="translate(16,93)"/>
<path d="M0 0 C2 1 2 1 2 1 Z " fill="#000000" transform="translate(199,83)"/>
<path d="" fill="#000000" transform="translate(0,0)"/>
<path d="" fill="#000000" transform="translate(0,0)"/>
<path d="" fill="#000000" transform="translate(0,0)"/>
<path d="" fill="#000000" transform="translate(0,0)"/>
<path d="" fill="#000000" transform="translate(0,0)"/>
<path d="" fill="#000000" transform="translate(0,0)"/>
<path d="" fill="#000000" transform="translate(0,0)"/>
<path d="" fill="#000000" transform="translate(0,0)"/>
<path d="" fill="#000000" transform="translate(0,0)"/>
<path d="M0 0 C2 1 2 1 2 1 Z " fill="#000000" transform="translate(36,78)"/>
<path d="" fill="#000000" transform="translate(0,0)"/>
<path d="" fill="#000000" transform="translate(0,0)"/>
<path d="" fill="#000000" transform="translate(0,0)"/>
<path d="" fill="#000000" transform="translate(0,0)"/>
<path d="" fill="#000000" transform="translate(0,0)"/>
<path d="" fill="#000000" transform="translate(0,0)"/>
<path d="" fill="#000000" transform="translate(0,0)"/>
<path d="" fill="#000000" transform="translate(0,0)"/>
<path d="" fill="#000000" transform="translate(0,0)"/>
<path d="M0 0 C2 1 2 1 2 1 Z " fill="#000000" transform="translate(153,56)"/>
<path d="M0 0 C2 1 2 1 2 1 Z " fill="#000000" transform="translate(101,56)"/>
<path d="M0 0 C2 1 2 1 2 1 Z " fill="#000000" transform="translate(151,55)"/>
<path d="M0 0 C2 1 2 1 2 1 Z " fill="#000000" transform="translate(103,55)"/>
<path d="M0 0 C2 1 2 1 2 1 Z " fill="#000000" transform="translate(149,54)"/>
<path d="M0 0 C2 1 2 1 2 1 Z " fill="#000000" transform="translate(105,54)"/>
<path d="M0 0 C2 1 2 1 2 1 Z " fill="#000000" transform="translate(146,53)"/>
<path d="M0 0 C2 1 2 1 2 1 Z " fill="#000000" transform="translate(108,53)"/>
<path d="M0 0 C2 1 2 1 2 1 Z " fill="#000000" transform="translate(143,52)"/>
<path d="M0 0 C2 1 2 1 2 1 Z " fill="#000000" transform="translate(111,52)"/>
<path d="M0 0 C2 1 2 1 2 1 Z " fill="#000000" transform="translate(164,40)"/>
<path d="M0 0 C2 1 2 1 2 1 Z " fill="#000000" transform="translate(90,40)"/>
<path d="" fill="#000000" transform="translate(0,0)"/>
<path d="" fill="#000000" transform="translate(0,0)"/>
<path d="" fill="#000000" transform="translate(0,0)"/>
<path d="" fill="#000000" transform="translate(0,0)"/>
<path d="" fill="#000000" transform="translate(0,0)"/>
<path d="" fill="#000000" transform="translate(0,0)"/>
<path d="" fill="#000000" transform="translate(0,0)"/>
<path d="" fill="#000000" transform="translate(0,0)"/>
<path d="" fill="#000000" transform="translate(0,0)"/>
<path d="" fill="#000000" transform="translate(0,0)"/>
<path d="" fill="#000000" transform="translate(0,0)"/>
<path d="" fill="#000000" transform="translate(0,0)"/>
<path d="" fill="#000000" transform="translate(0,0)"/>
<path d="" fill="#000000" transform="translate(0,0)"/>
<path d="" fill="#000000" transform="translate(0,0)"/>
<path d="" fill="#000000" transform="translate(0,0)"/>
<path d="" fill="#000000" transform="translate(0,0)"/>
<path d="" fill="#000000" transform="translate(0,0)"/>
<path d="" fill="#000000" transform="translate(0,0)"/>
<path d="" fill="#000000" transform="translate(0,0)"/>
<path d="" fill="#000000" transform="translate(0,0)"/>
<path d="" fill="#000000" transform="translate(0,0)"/>
<path d="" fill="#000000" transform="translate(0,0)"/>
<path d="" fill="#000000" transform="translate(0,0)"/>
<path d="" fill="#000000" transform="translate(0,0)"/>
<path d="" fill="#000000" transform="translate(0,0)"/>
<path d="" fill="#000000" transform="translate(0,0)"/>
<path d="" fill="#000000" transform="translate(0,0)"/>
<path d="" fill="#000000" transform="translate(0,0)"/>
<path d="" fill="#000000" transform="translate(0,0)"/>
<path d="" fill="#000000" transform="translate(0,0)"/>
<path d="" fill="#000000" transform="translate(0,0)"/>
<path d="" fill="#000000" transform="translate(0,0)"/>
<path d="" fill="#000000" transform="translate(0,0)"/>
<path d="" fill="#000000" transform="translate(0,0)"/>
<path d="" fill="#000000" transform="translate(0,0)"/>
<path d="" fill="#000000" transform="translate(0,0)"/>
<path d="" fill="#000000" transform="translate(0,0)"/>
<path d="" fill="#000000" transform="translate(0,0)"/>
<path d="" fill="#000000" transform="translate(0,0)"/>
<path d="" fill="#000000" transform="translate(0,0)"/>
<path d="" fill="#000000" transform="translate(0,0)"/>
<path d="" fill="#000000" transform="translate(0,0)"/>
<path d="" fill="#000000" transform="translate(0,0)"/>
<path d="" fill="#000000" transform="translate(0,0)"/>
<path d="" fill="#000000" transform="translate(0,0)"/>
<path d="" fill="#000000" transform="translate(0,0)"/>
<path d="" fill="#000000" transform="translate(0,0)"/>
<path d="" fill="#000000" transform="translate(0,0)"/>
<path d="" fill="#000000" transform="translate(0,0)"/>
<path d="" fill="#000000" transform="translate(0,0)"/>
<path d="" fill="#000000" transform="translate(0,0)"/>
<path d="" fill="#000000" transform="translate(0,0)"/>
<path d="" fill="#000000" transform="translate(0,0)"/>
<path d="" fill="#000000" transform="translate(0,0)"/>
<path d="" fill="#000000" transform="translate(0,0)"/>
<path d="" fill="#000000" transform="translate(0,0)"/>
<path d="" fill="#000000" transform="translate(0,0)"/>
<path d="" fill="#000000" transform="translate(0,0)"/>
<path d="" fill="#000000" transform="translate(0,0)"/>
<path d="" fill="#000000" transform="translate(0,0)"/>
<path d="" fill="#000000" transform="translate(0,0)"/>
<path d="" fill="#000000" transform="translate(0,0)"/>
<path d="" fill="#000000" transform="translate(0,0)"/>
<path d="" fill="#000000" transform="translate(0,0)"/>
<path d="" fill="#000000" transform="translate(0,0)"/>
<path d="" fill="#000000" transform="translate(0,0)"/>
<path d="" fill="#000000" transform="translate(0,0)"/>
<path d="" fill="#000000" transform="translate(0,0)"/>
<path d="" fill="#000000" transform="translate(0,0)"/>
<path d="" fill="#000000" transform="translate(0,0)"/>
<path d="" fill="#000000" transform="translate(0,0)"/>
<path d="" fill="#000000" transform="translate(0,0)"/>
<path d="" fill="#000000" transform="translate(0,0)"/>
<path d="" fill="#000000" transform="translate(0,0)"/>
<path d="" fill="#000000" transform="translate(0,0)"/>
<path d="" fill="#000000" transform="translate(0,0)"/>
<path d="" fill="#000000" transform="translate(0,0)"/>
<path d="" fill="#000000" transform="translate(0,0)"/>
<path d="" fill="#000000" transform="translate(0,0)"/>
<path d="" fill="#000000" transform="translate(0,0)"/>
<path d="" fill="#000000" transform="translate(0,0)"/>
<path d="" fill="#000000" transform="translate(0,0)"/>
<path d="" fill="#000000" transform="translate(0,0)"/>
<path d="" fill="#000000" transform="translate(0,0)"/>
<path d="" fill="#000000" transform="translate(0,0)"/>
<path d="" fill="#000000" transform="translate(0,0)"/>
<path d="" fill="#000000" transform="translate(0,0)"/>
<path d="" fill="#000000" transform="translate(0,0)"/>
<path d="" fill="#000000" transform="translate(0,0)"/>
<path d="" fill="#000000" transform="translate(0,0)"/>
<path d="" fill="#000000" transform="translate(0,0)"/>
<path d="" fill="#000000" transform="translate(0,0)"/>
<path d="" fill="#000000" transform="translate(0,0)"/>
<path d="" fill="#000000" transform="translate(0,0)"/>
<path d="" fill="#000000" transform="translate(0,0)"/>
<path d="" fill="#000000" transform="translate(0,0)"/>
<path d="" fill="#000000" transform="translate(0,0)"/>
<path d="" fill="#000000" transform="translate(0,0)"/>
<path d="" fill="#000000" transform="translate(0,0)"/>
<path d="" fill="#000000" transform="translate(0,0)"/>
<path d="" fill="#000000" transform="translate(0,0)"/>
<path d="" fill="#000000" transform="translate(0,0)"/>
<path d="" fill="#000000" transform="translate(0,0)"/>
<path d="" fill="#000000" transform="translate(0,0)"/>
<path d="" fill="#000000" transform="translate(0,0)"/>
<path d="" fill="#000000" transform="translate(0,0)"/>
<path d="" fill="#000000" transform="translate(0,0)"/>
<path d="" fill="#000000" transform="translate(0,0)"/>
<path d="" fill="#000000" transform="translate(0,0)"/>
<path d="" fill="#000000" transform="translate(0,0)"/>
<path d="" fill="#000000" transform="translate(0,0)"/>
<path d="" fill="#000000" transform="translate(0,0)"/>
<path d="" fill="#000000" transform="translate(0,0)"/>
<path d="" fill="#000000" transform="translate(0,0)"/>
<path d="" fill="#000000" transform="translate(0,0)"/>
<path d="" fill="#000000" transform="translate(0,0)"/>
<path d="" fill="#000000" transform="translate(0,0)"/>
<path d="" fill="#000000" transform="translate(0,0)"/>
<path d="" fill="#000000" transform="translate(0,0)"/>
<path d="" fill="#000000" transform="translate(0,0)"/>
<path d="" fill="#000000" transform="translate(0,0)"/>
<path d="" fill="#000000" transform="translate(0,0)"/>
<path d="" fill="#000000" transform="translate(0,0)"/>
<path d="" fill="#000000" transform="translate(0,0)"/>
<path d="" fill="#000000" transform="translate(0,0)"/>
<path d="" fill="#000000" transform="translate(0,0)"/>
<path d="" fill="#000000" transform="translate(0,0)"/>
<path d="" fill="#000000" transform="translate(0,0)"/>
<path d="" fill="#000000" transform="translate(0,0)"/>
<path d="" fill="#000000" transform="translate(0,0)"/>
<path d="" fill="#000000" transform="translate(0,0)"/>
<path d="" fill="#000000" transform="translate(0,0)"/>
<path d="" fill="#000000" transform="translate(0,0)"/>
<path d="" fill="#000000" transform="translate(0,0)"/>
<path d="" fill="#000000" transform="translate(0,0)"/>
<path d="" fill="#000000" transform="translate(0,0)"/>
<path d="" fill="#000000" transform="translate(0,0)"/>
<path d="" fill="#000000" transform="translate(0,0)"/>
<path d="" fill="#000000" transform="translate(0,0)"/>
<path d="" fill="#000000" transform="translate(0,0)"/>
<path d="" fill="#000000" transform="translate(0,0)"/>
<path d="" fill="#000000" transform="translate(0,0)"/>
<path d="" fill="#000000" transform="translate(0,0)"/>
<path d="" fill="#000000" transform="translate(0,0)"/>
<path d="" fill="#000000" transform="translate(0,0)"/>
<path d="" fill="#000000" transform="translate(0,0)"/>
<path d="" fill="#000000" transform="translate(0,0)"/>
<path d="" fill="#000000" transform="translate(0,0)"/>
<path d="" fill="#000000" transform="translate(0,0)"/>
<path d="" fill="#000000" transform="translate(0,0)"/>
<path d="" fill="#000000" transform="translate(0,0)"/>
<path d="" fill="#000000" transform="translate(0,0)"/>
<path d="" fill="#000000" transform="translate(0,0)"/>
<path d="" fill="#000000" transform="translate(0,0)"/>
<path d="" fill="#000000" transform="translate(0,0)"/>
<path d="" fill="#000000" transform="translate(0,0)"/>
<path d="" fill="#000000" transform="translate(0,0)"/>
<path d="" fill="#000000" transform="translate(0,0)"/>
<path d="" fill="#000000" transform="translate(0,0)"/>
<path d="" fill="#000000" transform="translate(0,0)"/>
<path d="" fill="#000000" transform="translate(0,0)"/>
<path d="" fill="#000000" transform="translate(0,0)"/>
<path d="" fill="#000000" transform="translate(0,0)"/>
<path d="" fill="#000000" transform="translate(0,0)"/>
<path d="" fill="#000000" transform="translate(0,0)"/>
<path d="" fill="#000000" transform="translate(0,0)"/>
<path d="" fill="#000000" transform="translate(0,0)"/>
<path d="" fill="#000000" transform="translate(0,0)"/>
<path d="" fill="#000000" transform="translate(0,0)"/>
<path d="" fill="#000000" transform="translate(0,0)"/>
<path d="" fill="#000000" transform="translate(0,0)"/>
<path d="" fill="#000000" transform="translate(0,0)"/>
<path d="" fill="#000000" transform="translate(0,0)"/>
<path d="" fill="#000000" transform="translate(0,0)"/>
<path d="" fill="#000000" transform="translate(0,0)"/>
<path d="" fill="#000000" transform="translate(0,0)"/>
<path d="" fill="#000000" transform="translate(0,0)"/>
<path d="" fill="#000000" transform="translate(0,0)"/>
<path d="" fill="#000000" transform="translate(0,0)"/>
<path d="" fill="#000000" transform="translate(0,0)"/>
<path d="" fill="#000000" transform="translate(0,0)"/>
<path d="" fill="#000000" transform="translate(0,0)"/>
<path d="" fill="#000000" transform="translate(0,0)"/>
<path d="" fill="#000000" transform="translate(0,0)"/>
<path d="" fill="#000000" transform="translate(0,0)"/>
<path d="" fill="#000000" transform="translate(0,0)"/>
<path d="" fill="#000000" transform="translate(0,0)"/>
<path d="" fill="#000000" transform="translate(0,0)"/>
<path d="" fill="#000000" transform="translate(0,0)"/>
<path d="" fill="#000000" transform="translate(0,0)"/>
<path d="" fill="#000000" transform="translate(0,0)"/>
<path d="" fill="#000000" transform="translate(0,0)"/>
<path d="" fill="#000000" transform="translate(0,0)"/>
<path d="" fill="#000000" transform="translate(0,0)"/>
<path d="" fill="#000000" transform="translate(0,0)"/>
<path d="" fill="#000000" transform="translate(0,0)"/>
<path d="" fill="#000000" transform="translate(0,0)"/>
<path d="" fill="#000000" transform="translate(0,0)"/>
<path d="" fill="#000000" transform="translate(0,0)"/>
<path d="" fill="#000000" transform="translate(0,0)"/>
<path d="" fill="#000000" transform="translate(0,0)"/>
<path d="" fill="#000000" transform="translate(0,0)"/>
<path d="" fill="#000000" transform="translate(0,0)"/>
<path d="" fill="#000000" transform="translate(0,0)"/>
<path d="" fill="#000000" transform="translate(0,0)"/>
<path d="" fill="#000000" transform="translate(0,0)"/>
<path d="" fill="#000000" transform="translate(0,0)"/>
<path d="" fill="#000000" transform="translate(0,0)"/>
<path d="" fill="#000000" transform="translate(0,0)"/>
<path d="" fill="#000000" transform="translate(0,0)"/>
<path d="" fill="#000000" transform="translate(0,0)"/>
<path d="" fill="#000000" transform="translate(0,0)"/>
<path d="" fill="#000000" transform="translate(0,0)"/>
<path d="" fill="#000000" transform="translate(0,0)"/>
<path d="" fill="#000000" transform="translate(0,0)"/>
<path d="" fill="#000000" transform="translate(0,0)"/>
<path d="" fill="#000000" transform="translate(0,0)"/>
<path d="" fill="#000000" transform="translate(0,0)"/>
<path d="" fill="#000000" transform="translate(0,0)"/>
<path d="" fill="#000000" transform="translate(0,0)"/>
<path d="" fill="#000000" transform="translate(0,0)"/>
<path d="" fill="#000000" transform="translate(0,0)"/>
<path d="" fill="#000000" transform="translate(0,0)"/>
<path d="" fill="#000000" transform="translate(0,0)"/>
<path d="" fill="#000000" transform="translate(0,0)"/>
<path d="" fill="#000000" transform="translate(0,0)"/>
<path d="" fill="#000000" transform="translate(0,0)"/>
<path d="" fill="#000000" transform="translate(0,0)"/>
<path d="" fill="#000000" transform="translate(0,0)"/>
<path d="" fill="#000000" transform="translate(0,0)"/>
<path d="" fill="#000000" transform="translate(0,0)"/>
<path d="" fill="#000000" transform="translate(0,0)"/>
<path d="" fill="#000000" transform="translate(0,0)"/>
<path d="" fill="#000000" transform="translate(0,0)"/>
<path d="" fill="#000000" transform="translate(0,0)"/>
<path d="" fill="#000000" transform="translate(0,0)"/>
<path d="" fill="#000000" transform="translate(0,0)"/>
<path d="" fill="#000000" transform="translate(0,0)"/>
<path d="" fill="#000000" transform="translate(0,0)"/>
<path d="" fill="#000000" transform="translate(0,0)"/>
<path d="" fill="#000000" transform="translate(0,0)"/>
<path d="" fill="#000000" transform="translate(0,0)"/>
<path d="" fill="#000000" transform="translate(0,0)"/>
<path d="" fill="#000000" transform="translate(0,0)"/>
<path d="" fill="#000000" transform="translate(0,0)"/>
<path d="" fill="#000000" transform="translate(0,0)"/>
<path d="" fill="#000000" transform="translate(0,0)"/>
<path d="" fill="#000000" transform="translate(0,0)"/>
<path d="" fill="#000000" transform="translate(0,0)"/>
<path d="" fill="#000000" transform="translate(0,0)"/>
<path d="" fill="#000000" transform="translate(0,0)"/>
<path d="" fill="#000000" transform="translate(0,0)"/>
<path d="" fill="#000000" transform="translate(0,0)"/>
<path d="" fill="#000000" transform="translate(0,0)"/>
<path d="" fill="#000000" transform="translate(0,0)"/>
<path d="" fill="#000000" transform="translate(0,0)"/>
<path d="" fill="#000000" transform="translate(0,0)"/>
<path d="" fill="#000000" transform="translate(0,0)"/>
<path d="" fill="#000000" transform="translate(0,0)"/>
<path d="" fill="#000000" transform="translate(0,0)"/>
<path d="" fill="#000000" transform="translate(0,0)"/>
<path d="" fill="#000000" transform="translate(0,0)"/>
<path d="" fill="#000000" transform="translate(0,0)"/>
<path d="" fill="#000000" transform="translate(0,0)"/>
<path d="" fill="#000000" transform="translate(0,0)"/>
<path d="" fill="#000000" transform="translate(0,0)"/>
<path d="" fill="#000000" transform="translate(0,0)"/>
<path d="" fill="#000000" transform="translate(0,0)"/>
<path d="" fill="#000000" transform="translate(0,0)"/>
<path d="" fill="#000000" transform="translate(0,0)"/>
<path d="" fill="#000000" transform="translate(0,0)"/>
<path d="" fill="#000000" transform="translate(0,0)"/>
<path d="" fill="#000000" transform="translate(0,0)"/>
<path d="" fill="#000000" transform="translate(0,0)"/>
<path d="" fill="#000000" transform="translate(0,0)"/>
<path d="" fill="#000000" transform="translate(0,0)"/>
<path d="" fill="#000000" transform="translate(0,0)"/>
<path d="" fill="#000000" transform="translate(0,0)"/>
<path d="" fill="#000000" transform="translate(0,0)"/>
<path d="" fill="#000000" transform="translate(0,0)"/>
<path d="" fill="#000000" transform="translate(0,0)"/>
<path d="" fill="#000000" transform="translate(0,0)"/>
<path d="" fill="#000000" transform="translate(0,0)"/>
<path d="" fill="#000000" transform="translate(0,0)"/>
<path d="" fill="#000000" transform="translate(0,0)"/>
<path d="" fill="#000000" transform="translate(0,0)"/>
<path d="" fill="#000000" transform="translate(0,0)"/>
<path d="" fill="#000000" transform="translate(0,0)"/>
<path d="" fill="#000000" transform="translate(0,0)"/>
<path d="" fill="#000000" transform="translate(0,0)"/>
<path d="" fill="#000000" transform="translate(0,0)"/>
<path d="" fill="#000000" transform="translate(0,0)"/>
<path d="" fill="#000000" transform="translate(0,0)"/>
<path d="" fill="#000000" transform="translate(0,0)"/>
<path d="" fill="#000000" transform="translate(0,0)"/>
<path d="" fill="#000000" transform="translate(0,0)"/>
<path d="" fill="#000000" transform="translate(0,0)"/>
<path d="" fill="#000000" transform="translate(0,0)"/>
<path d="" fill="#000000" transform="translate(0,0)"/>
<path d="" fill="#000000" transform="translate(0,0)"/>
<path d="" fill="#000000" transform="translate(0,0)"/>
</svg>
