<?xml version="1.0" standalone="no"?>
<svg version="1.0" xmlns="http://www.w3.org/2000/svg"
     width="1024.000000pt" height="1024.000000pt" viewBox="0 0 1024.000000 1024.000000"
     preserveAspectRatio="xMidYMid meet">

    <g transform="translate(0.000000,1024.000000) scale(0.100000,-0.100000)"
       fill="red" stroke="none">
        <path d="M4000 9349 c-32 -13 -78 -56 -96 -91 -25 -48 -17 -134 20 -225 l33
-82 -48 -59 c-156 -194 -383 -524 -514 -752 -366 -634 -588 -1248 -755 -2090
-108 -545 -191 -1219 -206 -1685 -5 -164 -4 -183 13 -213 10 -19 30 -40 43
-48 14 -8 225 -81 470 -163 245 -82 812 -274 1260 -426 448 -152 883 -300 965
-327 83 -28 152 -52 154 -54 5 -4 30 -332 31 -401 l0 -53 -772 0 c-425 0 -782
3 -793 6 -11 3 -51 47 -90 97 -333 435 -416 513 -595 563 -58 17 -109 19 -450
19 -431 0 -432 0 -488 -73 -24 -31 -27 -44 -27 -111 1 -74 3 -81 107 -317 58
-133 109 -251 112 -262 6 -18 1 -23 -36 -32 -79 -21 -212 -81 -280 -126 -104
-70 -200 -181 -259 -299 -69 -141 -91 -231 -92 -385 -1 -137 13 -206 63 -316
85 -188 266 -362 454 -438 225 -89 514 -68 723 55 81 47 220 189 272 276 69
117 121 294 121 414 l0 49 538 0 c1347 1 1672 6 2092 35 331 23 464 28 820 28
234 0 445 -3 470 -6 l45 -8 17 -87 c31 -170 100 -294 230 -418 175 -166 459
-248 688 -200 353 75 599 346 640 705 39 348 -177 721 -496 854 -260 109 -604
52 -806 -133 -52 -47 -163 -187 -197 -248 -5 -10 -59 0 -237 43 -694 170
-1162 277 -1266 292 -107 15 -118 18 -118 37 0 41 -40 645 -55 831 -86 1047
-321 2317 -606 3270 -139 463 -404 1227 -815 2350 -54 149 -74 182 -120 201
-38 16 -127 17 -164 3z"/>
    </g>
</svg>